<?xml version="1.0" encoding="UTF-8" standalone="no"?>
<!-- Created with Inkscape (http://www.inkscape.org/) -->

<svg
   version="1.1"
   id="svg16048"
   width="800"
   height="800"
   viewBox="0 0 800 800"
   sodipodi:docname="motorcycle-parts-publicdomainvectors.org.svg"
   inkscape:version="1.2 (dc2aedaf03, 2022-05-15)"
   xmlns:inkscape="http://www.inkscape.org/namespaces/inkscape"
   xmlns:sodipodi="http://sodipodi.sourceforge.net/DTD/sodipodi-0.dtd"
   xmlns="http://www.w3.org/2000/svg"
   xmlns:svg="http://www.w3.org/2000/svg">
  <defs
     id="defs16052">
    <clipPath
       clipPathUnits="userSpaceOnUse"
       id="clipPath16064">
      <path
         d="M 0,600 H 600 V 0 H 0 Z"
         id="path16062" />
    </clipPath>
  </defs>
  <sodipodi:namedview
     id="namedview16050"
     pagecolor="#ffffff"
     bordercolor="#000000"
     borderopacity="0.25"
     inkscape:showpageshadow="2"
     inkscape:pageopacity="0.0"
     inkscape:pagecheckerboard="0"
     inkscape:deskcolor="#d1d1d1"
     showgrid="false"
     inkscape:zoom="1.04625"
     inkscape:cx="400"
     inkscape:cy="400.4779"
     inkscape:window-width="1920"
     inkscape:window-height="1017"
     inkscape:window-x="-8"
     inkscape:window-y="-8"
     inkscape:window-maximized="1"
     inkscape:current-layer="g16056">
    <inkscape:page
       x="0"
       y="0"
       id="page16054"
       width="800"
       height="800" />
  </sodipodi:namedview>
  <g
     id="g16056"
     inkscape:groupmode="layer"
     inkscape:label="Page 1"
     transform="matrix(1.3333333,0,0,-1.3333333,0,800)">
    <g
       id="g16058">
      <g
         id="g16060"
         clip-path="url(#clipPath16064)">
        <g
           id="g16066"
           transform="translate(504.21,236.3516)">
          <path
             d="m 0,0 c 0,1.77 -0.575,3.451 -1.711,5.002 l -0.382,-0.28 -6.655,-4.873 6.427,-5.609 c 0.08,0.092 0.149,0.187 0.226,0.28 C -0.71,-3.79 0,-1.95 0,0 m -0.346,-9.141 c 0,0.654 -0.082,1.312 -0.244,1.955 l -1.347,-0.339 -6.32,-1.593 -0.65,0.058 0.174,-0.147 0.116,-10e-4 -0.089,-0.022 5.898,-5.04 0.365,-0.313 c 1.235,1.447 1.932,3.064 2.073,4.812 0.016,0.202 0.024,0.41 0.024,0.63 m -1.037,-9.088 c 0,1.041 -0.204,2.083 -0.609,3.099 l -0.909,-0.362 -6.701,-2.665 5.697,-4.243 0.886,-0.66 c 0.824,1.105 1.343,2.328 1.553,3.694 0.055,0.377 0.083,0.76 0.083,1.137 m -1.732,-8.974 c 0,1.228 -0.283,2.473 -0.844,3.698 l -0.262,-0.119 -7.288,-3.328 6.251,-3.293 1.23,-0.647 c 0.318,0.605 0.557,1.246 0.716,1.936 0.131,0.577 0.197,1.165 0.197,1.753 m -2.417,-8.802 c 0,1.132 -0.244,2.265 -0.716,3.442 -0.071,0.179 -0.134,0.357 -0.217,0.54 l -8.168,-3.73 7.698,-1.772 1.201,-0.275 c 0.133,0.584 0.202,1.188 0.202,1.795 m -3.09,-8.56 c -0.002,1.076 -0.218,2.028 -0.472,2.834 -0.142,0.454 -0.294,0.874 -0.433,1.209 l -9.751,-4.068 h 3.961 l 5.378,0.018 z m -3.789,-7.366 c -0.047,0.451 -0.13,0.874 -0.224,1.281 -0.152,0.652 -0.344,1.253 -0.531,1.78 l -12.35,-4.41 12.276,1.264 z m -4.419,-7.468 c -0.007,0.045 -0.016,0.087 -0.023,0.132 -0.129,0.841 -0.334,1.589 -0.502,2.194 l -6.462,-1.751 -6.437,-1.843 c 0.063,-0.223 0.131,-0.443 0.163,-0.597 l 13.149,1.848 z m -147.692,-60.248 9.559,8.317 c 0.066,-0.076 0.135,-0.157 0.195,-0.251 -0.069,0.108 -0.132,0.229 -0.198,0.351 l -11.769,-6.385 c 0.29,-0.536 0.617,-1.096 1.013,-1.658 0.2,-0.284 0.412,-0.567 0.657,-0.847 z m -7.734,2.526 6.686,7.014 -9.823,-4.649 c 0.176,-0.37 0.4,-0.792 0.658,-1.224 0.4,-0.675 0.906,-1.388 1.607,-2.055 z m -7.358,2.632 4.287,6.756 -8.452,-3.624 c 0.098,-0.234 0.218,-0.434 0.327,-0.651 0.786,-1.57 1.804,-2.771 3.122,-3.608 z m -6.582,3.37 2.083,6.845 -7.574,-3.188 -0.135,-0.057 c 0.816,-1.944 2.08,-3.39 3.736,-4.291 0.471,-0.257 0.971,-0.467 1.489,-0.624 z m -6.657,4.233 0.844,6.998 -6.625,-3.104 -0.786,-0.369 c 0.687,-1.466 1.687,-2.632 2.956,-3.456 1.032,-0.674 2.199,-1.092 3.469,-1.246 z m -6.747,4.604 0.309,7.609 -5.932,-3.664 -1.149,-0.709 c 0.521,-0.845 1.177,-1.571 1.957,-2.169 1.353,-1.028 2.963,-1.589 4.791,-1.663 z m -6.848,5.193 c 0.07,-0.004 0.137,-0.012 0.209,-0.013 l 0.191,8.594 0.004,0.198 -1.486,-1.645 -3.924,-3.832 -0.868,-0.847 0.393,-0.377 c 1.456,-1.295 3.3,-1.989 5.481,-2.078 m -7.189,6.339 c 0.362,-0.04 0.695,-0.063 0.99,-0.074 l 0.374,9.726 -4.283,-7.279 -0.708,-1.204 c 1.285,-0.755 2.574,-1.048 3.627,-1.169 m -6.696,6.88 c 0.591,-0.115 1.141,-0.176 1.612,-0.216 l 1.013,11.873 -4.042,-10.126 -0.401,-1.007 c 0.624,-0.25 1.241,-0.412 1.818,-0.524 m -6.155,7.37 c 0.735,-0.202 1.43,-0.319 2.085,-0.417 l 1.986,13.242 c -0.192,0.03 -0.383,0.053 -0.559,0.094 0.051,-0.012 0.099,-0.028 0.145,-0.042 l -4.055,-12.303 -0.136,-0.416 c 0.181,-0.058 0.358,-0.109 0.534,-0.158 m 5.588,160.252 0.109,-0.439 3.125,-12.556 c -0.049,-0.013 -0.1,-0.026 -0.153,-0.032 0.173,0.026 0.361,0.035 0.548,0.047 l -0.951,13.357 c -0.631,-0.045 -1.349,-0.109 -2.111,-0.257 -0.187,-0.036 -0.374,-0.073 -0.567,-0.12 m 5.378,6.605 0.331,-1.041 3.276,-10.318 -0.108,11.846 c -0.471,-0.005 -1.018,-0.022 -1.612,-0.091 -0.594,-0.069 -1.233,-0.189 -1.887,-0.396 m 5.341,5.834 0.619,-1.248 3.766,-7.58 0.357,9.737 c -0.351,0.013 -0.682,0.002 -1.013,-0.012 -1.392,-0.057 -2.618,-0.345 -3.729,-0.897 m -1.722,-18.71 c -0.141,-0.027 -0.225,-0.034 -0.231,-0.034 0.073,0.005 0.152,0.005 0.232,0.006 z m -30.79,-33.241 0.025,-0.049 c 0.088,0.074 0.183,0.15 0.292,0.214 -0.099,-0.058 -0.207,-0.111 -0.317,-0.165 m -2.745,-79.7 c -0.008,0.008 -0.113,0.082 -0.266,0.229 l -0.027,-0.046 c 0.102,-0.06 0.203,-0.118 0.293,-0.183 m -2.443,9.216 0.082,-0.064 c -0.003,0.004 -0.032,0.028 -0.076,0.071 z m 2.356,61.648 0.004,-0.007 c 0.05,0.041 0.079,0.06 0.084,0.064 z m 27.942,-106.147 c -0.081,0.007 -0.16,0.013 -0.237,0.024 0.005,-0.001 0.091,-0.013 0.235,-0.054 z m 54.295,-38.284 -0.013,-0.007 c 0.048,-0.071 0.072,-0.115 0.075,-0.12 z m 6.785,-12.811 10.358,8.485 c -0.131,0.174 -0.252,0.376 -0.38,0.574 l -0.06,0.093 -11.26,-7.246 0.056,-0.088 c 0.335,-0.52 0.751,-1.168 1.286,-1.818 m 45.385,-0.59 0.011,0.019 c -0.104,0.048 -0.161,0.081 -0.165,0.085 0.05,-0.031 0.101,-0.067 0.154,-0.104 m 9.179,1.668 v 0.001 c -0.008,0.003 -0.015,0.007 -0.017,0.007 z m 55.358,27.453 c -0.002,-0.006 -0.018,-0.088 -0.061,-0.223 l 0.029,-0.003 c 0.009,0.077 0.017,0.154 0.032,0.226 m 20.854,39.953 -0.05,-0.018 c 0.041,-0.115 0.083,-0.228 0.114,-0.338 -0.003,0.007 -0.037,0.137 -0.064,0.356 m 3.849,7.679 -0.009,-0.003 0.04,-0.1 c -0.002,0.005 -0.013,0.041 -0.031,0.103 m -182.947,146.555 0.8,-0.913 4.403,-5.033 0.579,-0.758 0.002,0.062 2.682,-3.34 c -9.953,-7.584 -18.631,-16.757 -25.645,-27.145 l -2.011,13.226 -0.25,-0.038 c -0.513,-0.075 -1.153,-0.17 -1.831,-0.332 l 3.119,-13.023 c 0.211,0.05 0.444,0.075 0.674,0.11 l 0.291,0.043 c -1.481,-2.195 -2.886,-4.443 -4.216,-6.743 l -3.126,12.423 c -0.168,-0.043 -0.343,-0.082 -0.516,-0.121 -0.369,-0.084 -0.738,-0.17 -1.092,-0.265 l 3.466,-12.935 c 0.195,0.053 0.399,0.097 0.603,0.143 0.091,0.021 0.181,0.043 0.273,0.065 -1.163,-2.042 -2.263,-4.124 -3.3,-6.243 l -4.314,11.39 c -0.205,-0.076 -0.425,-0.14 -0.646,-0.209 l -0.505,-0.158 4.096,-12.75 0.375,0.118 c 0.088,0.027 0.175,0.057 0.263,0.085 -0.853,-1.812 -1.66,-3.648 -2.418,-5.509 l -5.569,10.054 c -0.193,-0.094 -0.413,-0.172 -0.629,-0.259 l -0.036,-0.014 4.965,-12.437 c 0.082,0.033 0.175,0.07 0.263,0.105 -0.58,-1.522 -1.128,-3.061 -1.644,-4.615 l -6.883,8.193 5.794,-11.667 c -0.363,-1.227 -0.712,-2.46 -1.034,-3.703 l -6.144,4.273 5.193,-8.252 c -0.23,-1.044 -0.446,-2.093 -0.648,-3.146 l -5.571,1.334 4.79,-5.878 c -0.132,-0.873 -0.255,-1.748 -0.366,-2.629 l -5.182,-0.835 4.665,-4.199 c -0.067,-0.792 -0.12,-1.587 -0.168,-2.387 l -4.982,-2.402 -0.007,0.001 0.003,-0.003 -0.099,-0.047 0.181,-0.001 4.707,-2.762 c -0.009,-0.584 -0.022,-1.166 -0.022,-1.754 0,-0.209 0.008,-0.417 0.009,-0.627 l -4.961,-3.814 0.431,-0.105 h -0.568 l -0.088,-0.067 0.822,0.027 4.497,-1.099 c 0.044,-0.891 0.101,-1.779 0.164,-2.665 l -5.216,-5.457 5.646,0.875 c 0.121,-1.065 0.257,-2.126 0.406,-3.184 l -5.791,-7.787 6.432,3.742 c 0.225,-1.261 0.477,-2.511 0.744,-3.757 l -6.604,-11.088 7.428,7.526 c 0.391,-1.581 0.815,-3.149 1.273,-4.701 -0.089,0.043 -0.18,0.087 -0.265,0.13 l -2.946,-6.012 -2.893,-6.039 c 0.206,-0.1 0.415,-0.195 0.598,-0.303 l -0.05,0.032 6.362,9.563 c 0.614,-1.912 1.277,-3.8 1.986,-5.667 -0.087,0.036 -0.173,0.072 -0.261,0.105 l -0.352,0.141 -5.05,-12.401 0.467,-0.187 c 0.214,-0.086 0.431,-0.165 0.627,-0.259 l 5.193,10.979 c 0.868,-2.178 1.805,-4.324 2.8,-6.436 -0.085,0.028 -0.169,0.056 -0.255,0.082 -0.197,0.061 -0.396,0.122 -0.583,0.188 l -4.465,-12.625 c 0.348,-0.124 0.716,-0.239 1.08,-0.353 0.168,-0.051 0.337,-0.104 0.499,-0.157 l 4.07,12.126 c 1.147,-2.389 2.377,-4.73 3.682,-7.024 l -0.279,0.063 c -0.227,0.051 -0.455,0.095 -0.661,0.16 l -4.112,-12.744 c 0.665,-0.215 1.298,-0.359 1.805,-0.473 l 0.248,-0.058 3.011,13.03 c 17.908,-31.465 50.327,-53.641 88.089,-57.355 l -10.247,-7.979 0.265,-0.348 c 0.284,-0.375 0.571,-0.749 0.86,-1.089 l 10.218,8.653 c -0.135,0.162 -0.267,0.342 -0.402,0.519 l -0.15,0.196 c 2.43,-0.227 4.879,-0.381 7.35,-0.453 l -8.911,-8.599 c 0.143,-0.149 0.282,-0.31 0.424,-0.47 0.168,-0.191 0.338,-0.381 0.507,-0.565 l 9.855,9.065 c -0.11,0.122 -0.222,0.247 -0.333,0.373 -0.051,0.057 -0.103,0.111 -0.154,0.168 0.659,-0.012 1.318,-0.025 1.979,-0.025 1.479,0 2.948,0.038 4.413,0.092 l -7.284,-9.181 c 0.168,-0.138 0.331,-0.308 0.498,-0.471 l 0.15,-0.145 9.318,9.617 -0.131,0.129 c -0.052,0.049 -0.12,0.112 -0.176,0.166 1.776,0.104 3.54,0.246 5.292,0.431 l -5.318,-9.701 c -0.062,0.033 -0.125,0.069 -0.188,0.112 0.127,-0.089 0.253,-0.197 0.381,-0.303 l 8.555,10.301 c -0.003,0.003 -0.007,0.005 -0.009,0.008 1.364,0.186 2.721,0.394 4.07,0.628 l -2.288,-8.216 6.12,8.947 c 1.13,0.237 2.254,0.494 3.373,0.761 l 0.295,-4.595 0.003,-1.802 0.102,0.189 0.245,-3.818 -0.205,3.895 3.834,7.246 c 0.916,0.258 1.826,0.528 2.733,0.809 l 2.383,-4.765 2.28,6.329 c 0.761,0.273 1.52,0.556 2.276,0.845 l 3.886,-3.758 0.95,5.738 c 0.711,0.311 1.418,0.628 2.122,0.952 l 5.11,-3.048 -0.433,5.332 c 0.726,0.377 1.451,0.758 2.169,1.151 l 6.536,-2.496 -0.072,0.148 0.087,-0.153 0.091,-0.036 -0.435,0.731 -2.012,4.215 c 0.842,0.506 1.676,1.021 2.504,1.549 l 8.481,-1.98 -4.891,4.369 c 0.975,0.675 1.941,1.363 2.894,2.068 l 11.375,-1.401 -8.31,3.74 c 1.153,0.913 2.288,1.85 3.405,2.806 -0.002,-0.053 -0.005,-0.11 -0.007,-0.163 l 13.384,-0.456 c 0.006,0.189 0.008,0.379 0.028,0.554 -0.007,-0.055 -0.018,-0.11 -0.029,-0.161 l -11,2.313 c 1.383,1.25 2.735,2.534 4.056,3.85 0.003,-0.103 0.003,-0.203 0.007,-0.306 l 0.011,-0.254 13.381,0.533 -0.013,0.302 c -0.01,0.212 -0.021,0.424 -0.021,0.627 l 0.002,0.06 -11.913,0.522 c 1.547,1.598 3.049,3.238 4.501,4.925 0.011,-0.103 0.02,-0.202 0.033,-0.304 0.02,-0.178 0.043,-0.354 0.059,-0.529 l 13.331,1.283 c -0.028,0.276 -0.061,0.56 -0.095,0.843 -0.025,0.204 -0.05,0.407 -0.067,0.604 l -12.528,-1.03 c 1.637,1.937 3.209,3.93 4.715,5.974 l 0.058,-0.301 c 0.045,-0.224 0.094,-0.446 0.123,-0.659 l 13.274,1.759 c -0.065,0.484 -0.16,0.994 -0.261,1.503 l -0.073,0.377 -12.938,-2.427 c 13.844,18.897 22.034,42.186 22.034,67.355 0,22.046 -6.285,42.648 -17.144,60.121 l 12.719,-3.429 0.101,0.362 c 0.14,0.506 0.278,1.015 0.379,1.5 l -13.102,2.762 c -0.045,-0.213 -0.113,-0.434 -0.174,-0.658 l -0.079,-0.287 c -1.35,2.158 -2.767,4.269 -4.252,6.327 l 12.417,-1.996 c 0.032,0.196 0.073,0.397 0.113,0.599 0.056,0.282 0.112,0.562 0.159,0.838 l -13.191,2.297 c -0.03,-0.172 -0.066,-0.348 -0.102,-0.525 -0.02,-0.103 -0.036,-0.204 -0.056,-0.308 -1.322,1.794 -2.693,3.552 -4.114,5.264 l 11.92,-0.392 c 0.007,0.218 0.043,0.45 0.072,0.683 l 0.036,0.309 -13.301,1.543 -0.031,-0.258 c -0.012,-0.09 -0.024,-0.205 -0.034,-0.303 -1.222,1.419 -2.478,2.809 -3.769,4.167 l 11.166,1.437 c 0.008,-0.056 0.016,-0.097 0.015,-0.079 0,0.156 0.008,0.317 0.014,0.479 l -13.378,0.586 c -0.003,-0.06 -0.004,-0.119 -0.006,-0.179 -1.048,1.044 -2.12,2.067 -3.208,3.071 l 8.7,3.098 -11.547,-0.551 c -0.905,0.782 -1.827,1.546 -2.757,2.299 l 5.317,4.018 -8.704,-1.369 c -0.766,0.574 -1.54,1.141 -2.32,1.696 l 2.605,4.735 -6.672,-1.974 c -0.685,0.443 -1.375,0.879 -2.07,1.309 l 0.858,5.291 -5.352,-2.65 c -0.675,0.377 -1.353,0.747 -2.037,1.109 l -0.493,5.8 -4.172,-3.455 c -0.728,0.347 -1.461,0.686 -2.197,1.017 l -1.781,6.476 -2.772,-4.552 c -0.877,0.348 -1.76,0.686 -2.647,1.013 l -3.292,7.58 -0.879,-6.144 c -1.092,0.355 -2.191,0.695 -3.296,1.017 l -5.395,9.366 1.616,-8.333 c -1.325,0.336 -2.661,0.645 -4.003,0.935 0.007,0.005 0.014,0.011 0.022,0.016 l -7.753,10.919 c -0.133,-0.095 -0.262,-0.191 -0.393,-0.269 0.068,0.04 0.136,0.071 0.202,0.102 l 4.546,-10.09 c -1.733,0.318 -3.48,0.595 -5.239,0.836 0.06,0.049 0.132,0.106 0.188,0.153 l 0.142,0.117 -8.558,10.3 -0.16,-0.133 c -0.181,-0.151 -0.356,-0.306 -0.534,-0.432 l 0.009,0.005 6.558,-9.715 c -2.102,0.242 -4.22,0.426 -6.356,0.552 0.061,0.059 0.122,0.112 0.181,0.169 l 0.348,0.336 -9.167,9.76 c -0.174,-0.162 -0.347,-0.331 -0.521,-0.499 -0.155,-0.151 -0.308,-0.304 -0.465,-0.442 l 8.207,-9.245 c -1.779,0.082 -3.568,0.128 -5.368,0.128 -0.66,0 -1.317,-0.013 -1.974,-0.025 l 0.157,0.177 c 0.147,0.167 0.292,0.336 0.44,0.487 l -9.526,9.41 c -0.317,-0.32 -0.634,-0.675 -0.949,-1.031 l -0.287,-0.322 9.615,-8.728 c -24.903,-0.543 -47.862,-9.095 -66.41,-23.175 l -2.84,3.314 0.415,8.537 c -0.058,0.002 -0.109,0 -0.166,0.002 -2.21,0.073 -4.075,-0.476 -5.628,-1.661 z m 6.246,3.914 1.09,-0.788 5.669,-4.095 0.17,7.573 0.016,0.644 -0.263,0.003 c -2.102,0 -3.634,-0.707 -4.563,-1.31 -0.82,-0.535 -1.533,-1.217 -2.119,-2.027 m 7.271,3.78 0.747,-0.42 6.389,-3.596 -0.334,7.038 -0.056,1.189 c -1.258,-0.06 -2.437,-0.384 -3.504,-0.964 -1.352,-0.735 -2.443,-1.827 -3.242,-3.247 m 7.904,3.582 0.129,-0.067 7.333,-3.778 -1.637,6.992 -0.313,1.336 c -0.484,-0.114 -0.958,-0.272 -1.43,-0.48 -1.742,-0.779 -3.115,-2.124 -4.082,-4.003 m 8.661,3.822 c -0.119,-0.199 -0.235,-0.403 -0.347,-0.617 l 8.149,-4.258 -3.764,7.06 -0.626,1.175 c -1.384,-0.736 -2.505,-1.841 -3.412,-3.36 m 9.027,3.298 c -0.292,-0.415 -0.548,-0.818 -0.753,-1.176 l 9.447,-5.388 -6.145,7.508 -0.797,0.974 c -0.746,-0.611 -1.303,-1.279 -1.752,-1.918 m 10.869,-7.804 0.011,-0.007 0.07,0.119 c -0.002,-0.004 -0.029,-0.046 -0.081,-0.112 m -1.629,10.391 c -0.437,-0.527 -0.806,-1.059 -1.137,-1.569 l 11.239,-7.281 c 0.075,0.117 0.147,0.233 0.226,0.336 -0.069,-0.091 -0.146,-0.166 -0.219,-0.239 l -8.876,9.037 -0.507,0.516 c -0.268,-0.264 -0.503,-0.531 -0.726,-0.8 m 7.899,0.044 10.676,-8.082 0.066,0.086 c 0.141,0.188 0.276,0.38 0.399,0.52 l -9.654,9.279 c -0.586,-0.61 -1.052,-1.227 -1.427,-1.723 z m 46.785,-1.063 c -0.055,-0.031 -0.108,-0.063 -0.162,-0.089 0.006,0.003 0.064,0.031 0.172,0.072 z M -39.691,87.1 -39.72,87.099 c 0.034,-0.146 0.044,-0.233 0.045,-0.239 -0.009,0.078 -0.012,0.158 -0.016,0.24 m 17.708,-41.646 0.049,-0.022 c 0.042,0.214 0.086,0.339 0.088,0.346 -0.037,-0.106 -0.088,-0.214 -0.137,-0.324 m 9.262,5.365 -12.94,2.892 c -0.058,-0.21 -0.146,-0.426 -0.235,-0.668 l 12.585,-4.574 c 0.218,0.594 0.485,1.334 0.68,2.173 0.012,0.051 0.026,0.097 0.037,0.149 z m -5.97,-13.324 0.006,-0.004 c 0.022,0.058 0.037,0.09 0.038,0.096 z m 9.098,5.656 -12.127,2.186 11.97,-5.331 c 0.225,0.506 0.461,1.087 0.66,1.721 0.127,0.403 0.242,0.824 0.324,1.274 z m 2.711,-7.618 -9.205,0.627 9.314,-4.77 c 0.165,0.323 0.348,0.73 0.527,1.173 0.323,0.802 0.618,1.768 0.695,2.88 z m 3.668,-7.068 -1.203,-0.194 -7.778,-1.261 7.829,-4.311 c 0.094,0.17 0.163,0.338 0.247,0.507 0.657,1.337 0.999,2.64 1.005,3.962 0.004,0.432 -0.032,0.868 -0.1,1.297 m -0.105,-7.623 -6.472,-2.828 7,-3.846 0.271,-0.148 c 0.754,1.372 1.136,2.789 1.136,4.212 0,0.398 -0.029,0.793 -0.088,1.176 -0.101,0.681 -0.295,1.35 -0.575,1.989 z m 1.678,-7.341 -0.93,-0.592 -5.927,-3.763 h -0.159 l 0.09,-0.044 -0.127,-0.08 0.253,0.018 6.35,-3.096 0.886,-0.431 c 0.571,1.171 0.86,2.394 0.86,3.633 l -0.024,0.615 c -0.105,1.318 -0.532,2.576 -1.272,3.74 M 25.558,-5.853 c 0.621,-1.694 0.993,-3.674 0.822,-5.932 -0.171,-2.258 -0.838,-4.16 -1.708,-5.742 0.491,-1.737 0.712,-3.741 0.369,-5.981 -0.343,-2.242 -1.155,-4.091 -2.146,-5.603 0.358,-1.771 0.424,-3.785 -0.09,-5.993 -0.516,-2.209 -1.467,-3.993 -2.572,-5.424 0.22,-1.792 0.13,-3.81 -0.553,-5.971 -0.684,-2.162 -1.771,-3.865 -2.981,-5.206 0.079,-1.807 -0.164,-3.81 -1.013,-5.913 -0.849,-2.103 -2.063,-3.716 -3.373,-4.96 -0.058,-1.806 -0.457,-3.784 -1.464,-5.815 -1.008,-2.031 -2.343,-3.545 -3.745,-4.686 -0.197,-1.794 -0.746,-3.735 -1.906,-5.682 -1.16,-1.947 -2.605,-3.355 -4.091,-4.384 -0.335,-1.774 -1.03,-3.667 -2.335,-5.519 -1.304,-1.852 -2.853,-3.145 -4.411,-4.057 -0.469,-1.743 -1.307,-3.578 -2.75,-5.323 -1.441,-1.747 -3.084,-2.917 -4.706,-3.708 -0.6,-1.701 -1.575,-3.464 -3.143,-5.096 -1.572,-1.632 -3.299,-2.674 -4.978,-3.34 -0.727,-1.651 -1.835,-3.336 -3.525,-4.843 -1.691,-1.508 -3.492,-2.415 -5.215,-2.95 -0.854,-1.592 -2.086,-3.191 -3.889,-4.566 -1.798,-1.374 -3.662,-2.141 -5.422,-2.544 -0.971,-1.52 -2.322,-3.019 -4.222,-4.251 -1.9,-1.234 -3.819,-1.857 -5.605,-2.123 -1.085,-1.444 -2.546,-2.835 -4.536,-3.92 -1.991,-1.084 -3.951,-1.557 -5.753,-1.686 -1.193,-1.357 -2.757,-2.632 -4.826,-3.561 -2.068,-0.929 -4.097,-1.241 -5.868,-1.241 -1.294,-1.261 -2.954,-2.412 -5.09,-3.18 -2.133,-0.764 -4.143,-0.934 -5.944,-0.783 -1.388,-1.157 -3.13,-2.178 -5.318,-2.776 -2.186,-0.599 -4.204,-0.611 -5.987,-0.323 -1.474,-1.047 -3.291,-1.931 -5.52,-2.36 -2.222,-0.43 -4.235,-0.286 -5.99,0.139 -1.549,-0.932 -3.428,-1.671 -5.681,-1.927 -2.251,-0.257 -4.242,0.04 -5.958,0.597 -1.613,-0.81 -3.539,-1.403 -5.803,-1.489 -0.186,-0.006 -0.37,-0.009 -0.553,-0.009 -2.029,-0.001 -3.809,0.427 -5.341,1.056 -1.669,-0.685 -3.638,-1.13 -5.895,-1.047 -2.262,0.086 -4.189,0.679 -5.802,1.49 -1.718,-0.559 -3.71,-0.853 -5.961,-0.598 -2.252,0.257 -4.13,0.996 -5.679,1.928 -1.755,-0.425 -3.771,-0.569 -5.996,-0.138 -2.225,0.428 -4.041,1.311 -5.513,2.358 -1.783,-0.288 -3.8,-0.277 -5.985,0.323 -2.188,0.598 -3.932,1.619 -5.32,2.777 -1.8,-0.153 -3.811,0.017 -5.944,0.782 -2.135,0.769 -3.794,1.92 -5.089,3.182 -1.809,0.011 -3.799,0.31 -5.869,1.239 -2.069,0.929 -3.634,2.204 -4.827,3.562 -1.801,0.129 -3.763,0.603 -5.755,1.688 -1.989,1.085 -3.451,2.475 -4.535,3.919 -1.786,0.266 -3.706,0.89 -5.608,2.125 -1.9,1.232 -3.249,2.73 -4.22,4.252 -1.76,0.4 -3.624,1.169 -5.424,2.543 -1.8,1.375 -3.032,2.972 -3.885,4.564 -1.724,0.535 -3.525,1.442 -5.215,2.95 -1.691,1.507 -2.797,3.192 -3.526,4.843 -1.677,0.666 -3.405,1.708 -4.975,3.34 -1.57,1.631 -2.546,3.396 -3.146,5.097 -1.623,0.791 -3.264,1.962 -4.707,3.709 -1.441,1.746 -2.279,3.579 -2.748,5.322 -1.558,0.912 -3.105,2.203 -4.409,4.054 -1.307,1.854 -2.003,3.747 -2.338,5.522 -1.485,1.031 -2.93,2.438 -4.091,4.383 -1.159,1.947 -1.708,3.888 -1.905,5.683 -1.402,1.138 -2.735,2.654 -3.743,4.685 -1.007,2.031 -1.405,4.009 -1.465,5.815 -1.309,1.243 -2.524,2.855 -3.372,4.959 -0.849,2.103 -1.094,4.106 -1.013,5.913 -1.211,1.342 -2.297,3.044 -2.982,5.207 -0.683,2.161 -0.772,4.177 -0.553,5.97 -1.103,1.43 -2.055,3.212 -2.57,5.418 -0.514,2.209 -0.448,4.227 -0.092,5.998 -0.989,1.512 -1.8,3.361 -2.144,5.603 -0.343,2.239 -0.123,4.244 0.369,5.98 -0.871,1.582 -1.537,3.485 -1.708,5.743 -0.171,2.258 0.201,4.238 0.822,5.931 -0.747,1.643 -1.267,3.59 -1.267,5.854 0,2.264 0.52,4.212 1.267,5.854 -0.622,1.694 -0.994,3.673 -0.822,5.93 0.17,2.26 0.837,4.163 1.708,5.746 -0.492,1.737 -0.712,3.742 -0.368,5.983 0.343,2.24 1.154,4.089 2.143,5.6 -0.357,1.772 -0.422,3.788 0.093,5.997 0.514,2.208 1.466,3.989 2.57,5.42 -0.22,1.794 -0.131,3.811 0.553,5.973 0.684,2.161 1.77,3.864 2.982,5.206 -0.081,1.804 0.164,3.808 1.012,5.912 0.848,2.102 2.063,3.715 3.373,4.959 0.06,1.807 0.458,3.785 1.466,5.816 1.007,2.032 2.341,3.546 3.742,4.684 0.198,1.796 0.748,3.738 1.907,5.686 1.159,1.945 2.606,3.351 4.09,4.38 0.335,1.775 1.031,3.669 2.337,5.523 1.304,1.851 2.853,3.141 4.41,4.054 0.469,1.742 1.307,3.575 2.748,5.321 1.443,1.748 3.086,2.919 4.709,3.71 0.6,1.702 1.576,3.467 3.147,5.099 1.57,1.63 3.296,2.671 4.974,3.336 0.729,1.653 1.836,3.339 3.528,4.847 1.689,1.506 3.489,2.412 5.212,2.947 0.852,1.592 2.084,3.19 3.886,4.565 1.8,1.373 3.663,2.14 5.423,2.543 0.973,1.521 2.323,3.019 4.223,4.253 1.9,1.233 3.819,1.856 5.604,2.122 1.085,1.445 2.549,2.837 4.541,3.922 1.989,1.084 3.949,1.557 5.75,1.686 1.194,1.356 2.757,2.63 4.824,3.559 2.037,0.914 4,1.24 5.785,1.24 0.028,0 0.056,-10e-4 0.084,-10e-4 1.294,1.262 2.953,2.413 5.086,3.18 2.133,0.766 4.145,0.932 5.947,0.785 1.388,1.158 3.132,2.178 5.319,2.777 2.186,0.6 4.202,0.611 5.987,0.322 1.473,1.047 3.291,1.93 5.517,2.36 2.225,0.429 4.237,0.284 5.991,-0.138 1.55,0.93 3.428,1.669 5.681,1.927 2.249,0.256 4.243,-0.041 5.958,-0.598 1.614,0.81 3.542,1.404 5.806,1.49 2.253,0.083 4.224,-0.363 5.892,-1.048 1.669,0.684 3.627,1.135 5.894,1.048 2.264,-0.086 4.19,-0.68 5.804,-1.49 1.716,0.557 3.706,0.855 5.961,0.598 2.252,-0.258 4.129,-0.997 5.678,-1.928 1.756,0.423 3.769,0.568 5.995,0.138 2.226,-0.429 4.041,-1.312 5.514,-2.359 1.783,0.289 3.802,0.277 5.989,-0.323 2.188,-0.599 3.93,-1.618 5.319,-2.777 1.797,0.151 3.809,-0.018 5.944,-0.784 2.136,-0.767 3.795,-1.917 5.09,-3.18 h 0.085 c 1.783,0 3.745,-0.326 5.781,-1.239 2.068,-0.929 3.634,-2.204 4.825,-3.561 1.802,-0.128 3.762,-0.602 5.753,-1.685 1.99,-1.087 3.453,-2.477 4.539,-3.923 1.784,-0.265 3.702,-0.888 5.603,-2.119 1.902,-1.235 3.254,-2.735 4.224,-4.257 1.76,-0.403 3.625,-1.17 5.425,-2.543 1.801,-1.375 3.034,-2.972 3.886,-4.565 1.723,-0.534 3.524,-1.442 5.215,-2.95 1.69,-1.507 2.796,-3.191 3.524,-4.842 1.679,-0.665 3.404,-1.708 4.976,-3.338 1.57,-1.633 2.545,-3.397 3.146,-5.1 1.624,-0.791 3.266,-1.962 4.708,-3.71 1.443,-1.745 2.28,-3.579 2.748,-5.322 1.559,-0.912 3.108,-2.205 4.412,-4.057 1.306,-1.852 2.001,-3.745 2.335,-5.519 1.484,-1.028 2.929,-2.435 4.089,-4.381 1.159,-1.948 1.709,-3.889 1.906,-5.683 1.401,-1.14 2.735,-2.653 3.743,-4.683 1.007,-2.032 1.406,-4.011 1.464,-5.816 1.312,-1.246 2.528,-2.86 3.374,-4.964 0.849,-2.101 1.093,-4.103 1.012,-5.908 1.211,-1.341 2.297,-3.044 2.981,-5.204 0.683,-2.163 0.772,-4.181 0.553,-5.974 1.105,-1.43 2.056,-3.211 2.571,-5.419 0.514,-2.209 0.448,-4.225 0.091,-5.997 0.991,-1.51 1.801,-3.358 2.145,-5.596 0.344,-2.243 0.122,-4.249 -0.369,-5.986 0.871,-1.582 1.538,-3.486 1.709,-5.745 C 26.551,9.529 26.179,7.549 25.558,5.854 26.305,4.213 26.825,2.264 26.825,0 c 0,-2.264 -0.52,-4.21 -1.267,-5.853 m -234.321,28.08 36.769,-17.179 18.104,6.779 -8.387,21.396 -34.526,14.674 c -5.339,-7.728 -9.424,-16.382 -11.96,-25.67 m 14.273,28.858 30.251,-12.857 -11.985,30.572 c -6.941,-4.956 -13.102,-10.936 -18.266,-17.715 m 21.524,19.926 13.676,-34.886 18.142,-7.711 9.368,21.563 -13.235,32.614 c -10.1,-2.169 -19.537,-6.147 -27.951,-11.58 m 31.799,12.313 11.529,-28.416 12.577,28.949 c -3.345,0.403 -6.748,0.617 -10.201,0.617 -4.735,0 -9.38,-0.397 -13.905,-1.15 m 57.054,-10.73 c -8.773,5.236 -18.569,8.923 -29.011,10.691 l -14.492,-33.359 9.21,-22.699 -0.684,-0.278 c 0.534,-0.16 1.062,-0.336 1.581,-0.528 l -0.373,0.774 22.055,10.66 z m 3.343,-2.102 -10.216,-30.296 28.611,13.83 c -5.288,6.34 -11.488,11.896 -18.395,16.466 m 35.076,-48.513 c -2.866,10.625 -7.755,20.427 -14.231,28.966 L -92.704,35.1 -100.386,12.32 -81.502,5.25 Z m 0.93,-3.803 -31.702,-14.813 33.191,-12.425 c 0.319,2.979 0.487,6 0.487,9.062 0,6.238 -0.686,12.318 -1.976,18.176 m 0.98,-31.148 -37.553,14.061 -18.847,-8.807 c -0.27,-0.95 -0.589,-1.882 -0.954,-2.788 l 7.571,-15.574 40.823,-13.669 c 4.399,8.214 7.483,17.232 8.96,26.777 m -10.887,-30.181 -36.546,12.236 16.927,-34.829 c 7.799,6.295 14.459,13.945 19.619,22.593 m -22.727,-24.986 -18.919,38.928 -15.993,5.356 c -2.47,-1.552 -5.196,-2.732 -8.103,-3.459 l -4.542,-13.213 20.446,-40.828 c 9.885,2.767 19.04,7.293 27.111,13.216 m -30.918,-14.189 -18.387,36.715 -13.038,-37.935 c 4.073,-0.605 8.24,-0.923 12.479,-0.923 6.512,0 12.854,0.741 18.946,2.143 m -64.288,11.086 c 8.722,-5.571 18.532,-9.581 29.031,-11.644 l 14.463,42.08 -7.059,14.096 c -1.458,0.485 -2.861,1.085 -4.203,1.792 l -14.907,-5.807 z m -3.242,2.179 15.558,36.387 -37.058,-14.432 c 5.773,-8.56 13.07,-16.006 21.5,-21.955 M -155.419,0 c 0,2.613 0.363,5.14 1.028,7.539 l -12.732,-4.766 11.84,-5.533 c -0.088,0.909 -0.136,1.829 -0.136,2.76 m 12.13,23.488 0.61,1.404 -14.649,6.226 6.289,-16.043 c 2.086,3.284 4.827,6.11 8.048,8.283 z m 20.506,4.312 -6.977,17.194 -7.856,-18.082 0.871,-0.369 -0.013,-0.031 c 2.967,1.064 6.164,1.646 9.496,1.646 1.526,0 3.021,-0.125 4.479,-0.358 M -117.662,0 c 0,5.302 -4.298,9.6 -9.6,9.6 -5.3,0 -9.598,-4.298 -9.598,-9.6 0,-5.3 4.298,-9.599 9.598,-9.599 5.302,0 9.6,4.299 9.6,9.599 m 20.116,32.76 -16.418,-7.937 c 4.267,-2.291 7.871,-5.652 10.463,-9.723 z M -99.104,0 c 0,-1.031 -0.059,-2.05 -0.167,-3.053 l 12.897,6.027 -13.945,5.221 C -99.531,5.602 -99.104,2.852 -99.104,0 m -9.472,-21.056 9.908,-3.318 -4.648,9.563 c -1.445,-2.33 -3.22,-4.434 -5.26,-6.245 m -22.72,-6.808 3.934,-7.856 2.64,7.682 c -0.837,-0.074 -1.683,-0.118 -2.54,-0.118 -1.37,0 -2.716,0.103 -4.034,0.292 m -21.869,2.084 8.792,3.425 c -1.926,1.477 -3.653,3.197 -5.142,5.113 z m -57.482,12.258 c 1.767,-10.937 5.636,-21.178 11.186,-30.29 l 41.287,16.083 6.134,14.345 c -1.016,1.877 -1.819,3.886 -2.391,5.988 l -17.728,8.283 z m -0.537,3.897 34.155,12.787 -32.676,15.267 c -1.325,-5.935 -2.03,-12.1 -2.03,-18.429 0,-3.253 0.191,-6.465 0.551,-9.625 M -223.253,0 c 0,45.909 32.396,84.387 75.527,93.791 l 1.985,0.804 0.148,-0.365 c 5.937,1.154 12.064,1.763 18.331,1.763 52.931,0 95.993,-43.062 95.993,-95.993 0,-52.929 -43.062,-95.991 -95.993,-95.991 -52.929,0 -95.991,43.062 -95.991,95.991 m 27.055,91.021 -2.841,3.246 -0.001,-0.016 2.682,-3.353 c 0.052,0.041 0.106,0.082 0.16,0.123 M -228.054,0 c 0,-55.576 45.216,-100.791 100.792,-100.791 55.577,0 100.792,45.215 100.792,100.791 0,55.578 -45.215,100.793 -100.792,100.793 -55.576,0 -100.792,-45.215 -100.792,-100.793 m 100.792,110.392 C -66.392,110.392 -16.87,60.87 -16.87,0 c 0,-60.869 -49.522,-110.39 -110.392,-110.39 -60.869,0 -110.39,49.521 -110.39,110.39 0,60.87 49.521,110.392 110.39,110.392 M -386.216,27.353 c 5.91,-6.026 13.813,-9.389 22.254,-9.471 8.406,-0.089 16.406,3.129 22.432,9.037 6.026,5.91 9.39,13.813 9.472,22.254 0.081,8.439 -3.128,16.406 -9.038,22.432 -5.91,6.026 -13.814,9.39 -22.253,9.473 -8.444,0.092 -16.407,-3.128 -22.434,-9.038 h 0.001 c -12.44,-12.2 -12.635,-32.248 -0.434,-44.687 m 22.191,-15.855 c -10.145,0.098 -19.644,4.141 -26.749,11.384 -14.666,14.953 -14.433,39.05 0.521,53.716 v 0 c 14.954,14.665 39.049,14.432 53.715,-0.522 7.104,-7.244 10.963,-16.82 10.864,-26.965 -0.097,-10.146 -4.142,-19.645 -11.386,-26.75 -7.152,-7.015 -16.582,-10.866 -26.586,-10.866 -0.127,0 -0.252,0.001 -0.379,0.003 m 19.206,18.775 c 10.608,10.404 10.773,27.436 0.369,38.044 -10.404,10.607 -27.436,10.772 -38.044,0.368 -10.607,-10.403 -10.772,-27.435 -0.368,-38.043 10.402,-10.607 27.436,-10.773 38.043,-0.369 m 29.583,44.815 c -0.071,3.178 -1.006,6.221 -2.393,9.034 -0.093,0.188 -0.181,0.379 -0.278,0.564 -0.554,1.05 -1.179,2.064 -1.862,3.039 -1.245,1.775 -2.688,3.416 -4.296,4.877 -2.492,2.261 -5.365,4.115 -8.473,5.375 -3.112,1.239 -6.432,1.978 -9.816,1.713 2.638,-2.121 5.134,-3.896 7.501,-5.773 2.376,-1.848 4.611,-3.748 6.791,-5.713 2.179,-1.972 4.277,-4.029 6.354,-6.209 2.11,-2.167 4.107,-4.485 6.472,-6.907 m -9.147,29.943 2.527,-2.631 127.095,122.089 -2.527,2.631 z m 137.822,138.111 v 0 c -4.973,-4.878 -5.052,-12.896 -0.172,-17.87 2.363,-2.41 5.523,-3.755 8.898,-3.788 3.38,-0.038 6.562,1.251 8.972,3.615 2.41,2.363 3.755,5.523 3.788,8.898 0.032,3.375 -1.251,6.562 -3.615,8.971 -4.879,4.975 -12.895,5.053 -17.871,0.174 m 2.907,-31.058 -5.091,5.226 -126.496,-123.235 -0.462,-0.45 5.092,-5.227 0.25,0.244 z M -307.391,60.274 c 4.097,-8.472 8.188,-18.888 8.026,-21.494 l -53.576,-52.547 c -1.578,-1.546 -4.124,-1.526 -5.672,0.055 l -13.851,14.121 9.521,8.372 -0.183,0.177 c 10.066,0.131 20.1,3.976 27.854,11.581 15.983,15.676 16.232,41.341 0.556,57.325 -15.676,15.983 -41.341,16.232 -57.325,0.556 -8.467,-8.305 -12.517,-19.415 -12.124,-30.402 l -7.903,-7.227 -13.125,13.383 c -1.549,1.578 -1.524,4.123 0.055,5.673 l 53.6,52.568 c 2.502,0.191 12.49,-3.751 20.58,-7.703 l 0.426,-0.16 c 8.673,-2.331 16.808,0.042 23.503,6.84 l 123.747,122.218 -2.976,3.033 c -3.366,3.432 -3.312,8.961 0.12,12.327 l 22.622,22.187 c 1.642,1.61 3.805,2.493 6.101,2.493 h 0.088 c 2.327,-0.022 4.507,-0.95 6.137,-2.613 l 30.515,-31.113 c 3.366,-3.431 3.313,-8.96 -0.119,-12.326 l -22.622,-22.188 c -1.662,-1.631 -3.87,-2.527 -6.188,-2.493 -2.329,0.022 -4.508,0.95 -6.139,2.612 l -2.982,3.041 -122.763,-120.402 -0.088,-0.092 c -7.286,-7.947 -8.907,-15.355 -5.984,-27.33 l 0.06,-0.246 z m 67.022,176.766 c 7.006,4.397 21.651,15.408 24.731,12.463 l 2.737,-2.791 c 0.636,2.076 1.778,4.028 3.434,5.652 l 22.622,22.188 c 5.302,5.199 13.849,5.118 19.049,-0.186 l 30.516,-31.113 c 5.2,-5.302 5.118,-13.848 -0.184,-19.049 l -22.623,-22.187 c -1.625,-1.595 -3.584,-2.722 -5.713,-3.331 l 6.546,-6.673 c 2.964,-2.367 -9.54,-18.035 -14.223,-24.874 -1.353,-1.979 2.671,-5.602 4.268,-4.036 l 62.656,61.453 -74.329,75.786 3.907,3.831 74.329,-75.786 7.335,7.194 -74.484,75.943 3.907,3.833 74.484,-75.944 9.077,8.902 c 5.002,4.907 4.773,13.254 -0.512,18.643 l -56.385,57.49 c -5.286,5.389 -13.627,5.78 -18.63,0.874 l -21.503,-21.09 c -0.358,-0.685 -0.92,-1.24 -1.615,-1.584 l -63.073,-61.861 c -1.426,-1.399 1.14,-5.34 3.676,-3.747 m -190.26,-190.903 10.299,-10.502 3.394,3.329 -10.3,10.501 z m 60.261,-54.654 7.523,-7.672 -3.393,-3.33 -10.3,10.501 3.394,3.331 z"
             style="fill:#110f0d;fill-opacity:1;fill-rule:nonzero;stroke:none"
             id="path16068" />
        </g>
      </g>
    </g>
  </g>
</svg>
